<?xml version="1.0" encoding="UTF-8"?>
<svg id="b" data-name="Слой 2" xmlns="http://www.w3.org/2000/svg" viewBox="0 0 891.75 285.41">
  <defs>
    <style>
      .d {
        fill: #e41e18;
      }

      .e {
        fill: #235ba4;
      }
    </style>
  </defs>
  <g id="c" data-name="Слой 1">
    <path class="e" d="M15.75,69.75C50.69,48.94,85.63,28.14,120.57,7.33c34.62,20.54,69.25,41.08,103.87,61.62-9.52,6.06-19.04,12.13-28.56,18.19-24.91-15-49.82-29.99-74.72-44.99-24.97,14.93-49.95,29.86-74.92,44.79-10.16-5.73-20.32-11.47-30.49-17.2Z"/>
    <path class="e" d="M134.63,145.91c34.85-20.36,69.7-40.72,104.56-61.08v89.03c-9.33,5.7-18.66,11.4-27.99,17.11.13-19.7.25-39.4.38-59.11-15.47,7.79-30.94,15.58-46.41,23.37-.35,21.2-.69,42.4-1.04,63.6-9.83,5.03-19.67,10.05-29.5,15.08v-87.99Z"/>
    <path class="e" d="M239.19,197.11v30.03c-34.85,19.42-69.7,38.84-104.56,58.26v-26.73c34.85-20.52,69.7-41.04,104.56-61.57Z"/>
    <path class="d" d="M106.82,145.59v27.62c-25.59-14.94-51.18-29.87-76.77-44.81v27.96l76.6,46.03c.06,8.45.12,16.91.17,25.36-25.59-14.36-51.18-28.72-76.77-43.08v27.27c25.71,15.52,51.41,31.03,77.12,46.55-.23,8.45-.46,16.91-.69,25.36-35.49-20.09-70.98-40.18-106.47-60.27.35-45.48.69-90.96,1.04-136.44,35.26,19.48,70.52,38.97,105.78,58.45Z"/>
    <path class="d" d="M336.7,26.97l85.49.07c-.05-9.02-.1-18.03-.15-27.05-38.85.31-77.7.63-116.56.94.72,42.3,1.44,84.59,2.17,126.89,39.32.02,78.65.04,117.97.06-.04-8.95-.08-17.89-.12-26.84-29.21-.04-58.42-.08-87.63-.12v-23.54c25.82.01,51.64.03,77.47.04.02-8.97.05-17.95.07-26.92-26.17.13-52.34.27-78.52.4-.06-7.98-.12-15.96-.18-23.95Z"/>
    <path class="d" d="M478.96,30.24c-9.92-10.08-19.84-20.16-29.76-30.24h94.12c12.39,2.28,22.64,11.03,26.78,22.9,4.2,12.02,1.51,25.42-6.99,34.93,2.1,1.53,16.03,12.01,17.08,29.89.98,16.7-9.69,32.98-26.78,40.17h-104.22c10.09-8.99,20.18-17.98,30.27-26.97h66.95c4.53-3.23,6.95-8.55,6.21-13.78-.84-5.96-5.42-9.17-6.21-9.71-22.38.07-44.76.14-67.15.2-.06-9-.12-18-.18-27,19.08-.25,38.15-.5,57.23-.75,5.02-1.89,7.96-6.84,7.19-11.57-.59-3.66-3.33-6.74-7.04-8.07h-57.54Z"/>
    <path class="d" d="M449.2,0c9.92,10.08,19.84,20.16,29.76,30.24.17,23.56.35,47.12.52,70.68-10.09,8.99-20.18,17.98-30.27,26.97V0Z"/>
    <path class="d" d="M600.36,3.01c.1,41.63.21,83.26.31,124.88h29.92v-26.96c20.16-.1,40.32-.21,60.47-.31,22.18-6.13,37.5-26.24,37.38-48.49-.13-24.02-18.23-45.14-42.85-49.11h-85.24l30.4,29.44c16.64-.27,33.27-.53,49.91-.8,10.4,1.57,17.92,10.75,17.44,20.86-.44,9.44-7.75,17.52-17.44,18.96-16.56.13-33.12.25-49.68.38-.08-13.13-.16-26.27-.23-39.4l-30.4-29.44Z"/>
    <path class="d" d="M815.79.19v23.4c-24.79-2-46.46,17.36-47.31,41.86-.85,24.33,19.13,45.11,43.64,44.99,24.69-.13,44.05-21.41,43.2-44.99-.76-21.05-17.46-39.19-39.53-41.86V.19c37.22.9,66.62,30.76,67.21,65.26.66,38.35-34.54,67.98-71.21,66.86-34.73-1.06-67.41-29.6-66.86-66.86.54-36.31,32.42-66.81,70.86-65.26Z"/>
    <path class="e" d="M483.46,178.3c.16,6.74.33,13.48.49,20.22-19.63-1.59-36.79,13.75-37.47,33.15-.69,19.65,16.19,35.07,34.56,35.63,19.7.59,37.73-16,36.79-35.88-.81-16.98-15.25-31.69-33.88-32.9-.16-6.74-.33-13.48-.49-20.22,30.05.79,53.7,25.26,53.72,53.37.02,30.57-27.91,53.05-56.4,52.95-28.63-.1-56.13-23.01-56.01-53.15.12-29.47,26.59-54.9,58.69-53.17Z"/>
    <path class="e" d="M304.22,282.72h23.42c.21-27.98.42-55.96.63-83.95,18.92.03,37.84.07,56.77.1-.03,27.95-.07,55.89-.1,83.84h23.73c-.07-33.66-.14-67.32-.21-100.99h-104.23v100.99Z"/>
    <path class="e" d="M552.75,181.73h23.98v42.61c-.1.77-.75,6.5,3.53,11.07,4.64,4.95,11.05,4.23,11.69,4.15,12.45.03,24.9.06,37.36.08v-57.92h25.1c-.03,33.66-.05,67.32-.08,100.99h-23.35c.03-7.92.06-15.84.09-23.75-13.21.02-26.43.04-39.64.05-2.84.13-14.8.35-25.41-8.47-12-9.97-13.12-23.86-13.27-26.25v-42.56Z"/>
    <path class="e" d="M667.05,181.73v19.05h40.85v83.84h25.29v-82.87h41.84v-20.02h-107.98Z"/>
    <path class="e" d="M763.35,282.72c15.56-33.66,31.13-67.32,46.69-100.99h41.34c13.46,33.66,26.91,67.32,40.37,100.99h-24.32c-12.97-28.23-25.95-56.45-38.92-84.68-6.97,16.64-13.94,33.28-20.9,49.92h44.26c2.99,6.7,5.98,13.4,8.97,20.1-21.57.02-43.15.04-64.72.06-2.4,4.87-4.8,9.74-7.2,14.61h-25.57Z"/>
  </g>
</svg>