<?xml version="1.0" encoding="UTF-8"?>
<svg id="b" data-name="Слой 2" xmlns="http://www.w3.org/2000/svg" xmlns:xlink="http://www.w3.org/1999/xlink" viewBox="0 0 968.97 303.2">
  <defs>
    <style>
      .f {
        fill: none;
      }

      .g {
        fill: #e7e6e6;
      }

      .h {
        fill: #e94b25;
      }

      .i {
        fill: #ef7755;
      }

      .j {
        fill: #fff;
      }

      .k {
        clip-path: url(#e);
      }

      .l {
        clip-path: url(#d);
      }

      .m {
        fill: #e13313;
      }
    </style>
    <clipPath id="d">
      <path class="f" d="M139.58,3.38h0c77.09,0,139.58,62.49,139.58,139.58v17.27c0,77.09-62.49,139.58-139.58,139.58S0,237.32,0,160.23v-17.27C0,65.87,62.49,3.38,139.58,3.38Z"/>
    </clipPath>
    <clipPath id="e">
      <rect class="f" x="-9.77" y="22.65" width="244.27" height="259.38"/>
    </clipPath>
  </defs>
  <g id="c" data-name="Слой 1">
    <path class="j" d="M574.84,145.17h-16.87v-20.61h-46.73v20.61h-16.87v-36.38h5.57c1.8-3.82,3.26-8.36,4.39-13.62,1.12-5.38,2.02-11.05,2.7-17.03.67-5.97,1.13-12.07,1.35-18.28.22-6.21.34-12.13.34-17.74v-7.71h57.19v74.38h8.94v36.38ZM381.66,16.85h-9.11c-8.44,0-14.79,2.03-19.06,6.09-4.27,4.06-6.41,9.44-6.41,16.13,0,3.82.39,7.17,1.18,10.04.79,2.75,1.91,5.32,3.37,7.71,1.57,2.39,3.49,4.66,5.74,6.81,2.36,2.03,5.12,4.18,8.27,6.45l10.29,7.35-29.69,47.14h-22.1l26.66-42.12c-3.82-2.87-7.25-5.79-10.29-8.78-2.92-2.99-5.4-6.15-7.42-9.5-2.02-3.35-3.6-6.93-4.72-10.75-1.01-3.94-1.52-8.3-1.52-13.08,0-5.97.96-11.41,2.87-16.31,2.02-5.02,4.95-9.26,8.77-12.72,3.82-3.58,8.55-6.33,14.17-8.24,5.74-2.03,12.32-3.05,19.74-3.05h29.69v124.56h-20.41V16.85ZM600.48,86.57c.34,8.12,2.14,14.16,5.4,18.1,3.26,3.94,8.77,5.91,16.53,5.91,4.72,0,9.39-.84,14-2.51,4.72-1.79,8.6-3.76,11.64-5.91v16.31c-2.92,2.15-6.64,4-11.13,5.56-4.5,1.55-9.9,2.33-16.2,2.33-12.6,0-22.33-3.82-29.19-11.47-6.75-7.65-10.12-19.36-10.12-35.13,0-6.81.67-13.08,2.02-18.82,1.46-5.74,3.66-10.69,6.58-14.88,2.92-4.3,6.58-7.59,10.97-9.86,4.5-2.39,9.73-3.58,15.69-3.58,4.84,0,9.22.78,13.16,2.33,4.05,1.55,7.48,4.06,10.29,7.53,2.81,3.47,4.95,7.95,6.41,13.44,1.57,5.38,2.36,12.01,2.36,19.89v10.75h-48.42ZM484.24,34.41v90.15h-18.39v-38.17h-28.51v38.17h-18.39V34.41h18.39v36.2h28.51v-36.2h18.39ZM682.47,79.22v45.34h-18.39V34.41h18.39v43.55l29.69-43.55h19.23l-28.85,42.3,32.56,47.85h-21.6l-31.04-45.34ZM774.42,126.35c-13.27,0-23.11-4-29.52-12.01-6.3-8.01-9.45-19.6-9.45-34.77,0-6.81.79-13.08,2.36-18.82,1.69-5.85,4.11-10.81,7.25-14.88,3.26-4.18,7.25-7.41,11.98-9.68,4.72-2.39,10.24-3.58,16.53-3.58,4.84,0,9,.42,12.48,1.25,3.49.72,6.24,1.73,8.27,3.05v17.21c-1.91-1.31-4.55-2.57-7.93-3.76-3.37-1.19-6.92-1.79-10.63-1.79-6.86,0-12.15,2.57-15.86,7.71-3.6,5.02-5.4,12.61-5.4,22.76s1.63,17.32,4.89,22.94c3.26,5.62,8.66,8.42,16.2,8.42,4.05,0,7.54-.54,10.46-1.61,3.04-1.19,5.79-2.69,8.27-4.48v16.49c-2.36,1.79-5.17,3.17-8.44,4.12-3.15.96-6.97,1.43-11.47,1.43ZM547.51,50.18h-22.61v3.76c0,3.94-.11,8.36-.34,13.26-.22,4.9-.62,9.86-1.18,14.88-.56,5.02-1.35,9.86-2.36,14.52-.9,4.66-2.08,8.72-3.54,12.19h30.03v-58.61ZM616.34,48.39c-5.17,0-9.05,2.03-11.64,6.09-2.59,3.94-3.99,9.74-4.22,17.38h29.69v-2.33c0-2.99-.22-5.74-.67-8.24-.45-2.63-1.24-4.9-2.36-6.81-1.01-1.91-2.42-3.41-4.22-4.48-1.69-1.08-3.88-1.61-6.58-1.61Z"/>
    <path class="j" d="M324.13,303.2v-42.74h7.92c2.7-4.77,4.6-11.62,5.73-20.56,1.23-9.06,2.13-20.98,2.69-35.76l1.69-51.14h68.74v107.47h10.95v42.74h-19.04v-25.93h-59.65v25.93h-19.04ZM359.69,206.99c-.22,7.39-.57,13.95-1.01,19.67-.45,5.72-1.01,10.73-1.68,15.02-.56,4.29-1.24,7.99-2.02,11.09-.79,2.98-1.63,5.54-2.53,7.69h38.07v-90.66h-29.65l-1.18,37.19Z"/>
    <path class="j" d="M467.76,185.54c5.5,0,10.56,1.01,15.16,3.04,4.6,2.03,8.54,5.07,11.79,9.12,3.26,3.93,5.78,8.82,7.58,14.66,1.91,5.72,2.86,12.34,2.86,19.85s-.95,14.19-2.86,20.03c-1.8,5.84-4.32,10.79-7.58,14.84-3.26,3.93-7.19,6.91-11.79,8.94-4.6,2.03-9.66,3.04-15.16,3.04s-10.56-1.01-15.17-3.04c-4.6-2.03-8.54-5.01-11.79-8.94-3.26-4.05-5.84-8.94-7.75-14.66-1.8-5.84-2.7-12.52-2.7-20.03s.9-14.19,2.7-20.03c1.91-5.84,4.49-10.73,7.75-14.66,3.26-4.05,7.19-7.09,11.79-9.12,4.6-2.03,9.66-3.04,15.17-3.04ZM467.76,262.25c5.61,0,9.77-2.38,12.46-7.15,2.81-4.77,4.21-12.4,4.21-22.89s-1.4-18.06-4.21-22.71c-2.7-4.77-6.85-7.15-12.46-7.15s-9.83,2.38-12.64,7.15c-2.7,4.77-4.04,12.4-4.04,22.89s1.35,18.12,4.04,22.89c2.81,4.65,7.02,6.97,12.64,6.97Z"/>
    <path class="j" d="M555.02,279.06c-13.48,0-23.47-3.99-29.99-11.98-6.51-7.99-9.77-19.55-9.77-34.69,0-6.79.78-13.05,2.36-18.78,1.68-5.84,4.16-10.79,7.41-14.84,3.37-4.17,7.47-7.39,12.3-9.66,4.83-2.38,10.44-3.58,16.85-3.58,5.05,0,9.38.42,12.97,1.25,3.59.72,6.46,1.73,8.59,3.04v18.06c-2.02-1.31-4.77-2.56-8.25-3.75-3.49-1.19-7.19-1.79-11.12-1.79-6.63,0-11.68,2.5-15.16,7.51-3.49,4.89-5.22,12.22-5.22,22s1.57,16.69,4.72,22.17c3.14,5.48,8.31,8.23,15.5,8.23,4.27,0,7.92-.54,10.95-1.61,3.14-1.07,6.01-2.56,8.59-4.47v17.35c-4.83,3.7-11.74,5.54-20.72,5.54Z"/>
    <path class="j" d="M627.79,204.13v73.14h-20.05v-73.14h-23.59v-16.81h67.22v16.81h-23.59Z"/>
    <path class="j" d="M706.55,236.32h-2.86c-8.65,0-14.82,1.07-18.53,3.22-3.7,2.03-5.56,5.6-5.56,10.73,0,3.81,1.01,6.91,3.03,9.3,2.14,2.27,5.34,3.4,9.61,3.4,3.6,0,6.57-.66,8.93-1.97,2.36-1.43,4.16-3.16,5.39-5.19v-19.49ZM726.6,255.27c0,7.39.34,14.72,1.01,21.99h-19.54c-.34-.95-.67-2.09-1.01-3.4-.22-1.31-.39-2.56-.5-3.76h-.84c-1.91,2.15-4.38,4.11-7.41,5.9-3.03,1.67-7.47,2.5-13.31,2.5-7.75,0-14.04-2.44-18.87-7.33-4.72-4.89-7.08-11.92-7.08-21.1s3.54-16.27,10.61-21.28c7.08-5.13,18.31-7.69,33.7-7.69h3.2v-5.01c0-4.89-1.12-8.29-3.37-10.19-2.25-2.03-5.78-3.04-10.62-3.04-2.58,0-5.22.3-7.92.89-2.7.48-5.28,1.13-7.75,1.97-2.36.83-4.6,1.79-6.74,2.86-2.03,1.07-3.71,2.15-5.06,3.22v-17.7c3.03-1.91,7.08-3.76,12.13-5.54,5.05-1.79,10.95-2.68,17.69-2.68,10.67,0,18.59,2.27,23.75,6.8,5.28,4.53,7.92,12.28,7.92,23.25v39.34Z"/>
    <path class="j" d="M778.1,187.32c18.76,0,28.13,7.63,28.13,22.89,0,5.36-1.35,9.78-4.04,13.23-2.58,3.34-6.18,5.72-10.78,7.15,5.73.95,10.16,3.16,13.31,6.62,3.14,3.34,4.72,7.99,4.72,13.95,0,8.58-2.8,15.08-8.42,19.49-5.5,4.41-13.26,6.62-23.25,6.62h-35.05v-89.94h35.38ZM762.26,239v22.53h13.81c4.04,0,7.24-.89,9.61-2.68,2.36-1.91,3.54-4.95,3.54-9.12,0-3.81-1.12-6.56-3.37-8.23-2.24-1.67-5.5-2.5-9.77-2.5h-13.81ZM762.26,203.06v20.38h12.81c3.82,0,6.74-.89,8.76-2.68,2.13-1.79,3.2-4.23,3.2-7.33,0-6.91-3.76-10.37-11.29-10.37h-13.48Z"/>
    <path class="j" d="M842.89,233.82v43.45h-20.05v-89.94h20.05v42.2l28.31-42.2h20.22l-28.31,42.2,32.18,47.74h-22.74l-29.66-43.45Z"/>
    <path class="j" d="M947.91,236.32h-2.86c-8.65,0-14.82,1.07-18.53,3.22-3.71,2.03-5.56,5.6-5.56,10.73,0,3.81,1.01,6.91,3.03,9.3,2.13,2.27,5.34,3.4,9.61,3.4,3.59,0,6.57-.66,8.93-1.97,2.36-1.43,4.16-3.16,5.39-5.19v-19.49ZM967.96,255.27c0,7.39.34,14.72,1.01,21.99h-19.55c-.34-.95-.67-2.09-1.01-3.4-.22-1.31-.39-2.56-.51-3.76h-.84c-1.91,2.15-4.38,4.11-7.41,5.9-3.03,1.67-7.47,2.5-13.31,2.5-7.75,0-14.04-2.44-18.87-7.33-4.72-4.89-7.07-11.92-7.07-21.1s3.54-16.27,10.61-21.28c7.08-5.13,18.31-7.69,33.69-7.69h3.2v-5.01c0-4.89-1.12-8.29-3.37-10.19-2.24-2.03-5.78-3.04-10.61-3.04-2.58,0-5.22.3-7.92.89-2.7.48-5.28,1.13-7.75,1.97-2.36.83-4.6,1.79-6.74,2.86-2.02,1.07-3.7,2.15-5.05,3.22v-17.7c3.03-1.91,7.08-3.76,12.13-5.54,5.06-1.79,10.95-2.68,17.69-2.68,10.67,0,18.59,2.27,23.76,6.8,5.28,4.53,7.92,12.28,7.92,23.25v39.34Z"/>
    <g class="l">
      <g>
        <path class="g" d="M139.58,3.38h0c77.09,0,139.58,62.49,139.58,139.58v17.27c0,77.09-62.49,139.58-139.58,139.58h0C62.49,299.82,0,237.32,0,160.23v-17.27C0,65.87,62.49,3.38,139.58,3.38Z"/>
        <g class="k">
          <g>
            <path class="i" d="M-9.77,69.34L112.36,22.65l122.13,46.69v166.01l-122.13,46.69L-9.77,235.34V69.34Z"/>
            <path class="m" d="M-9.77,69.34l122.13,46.69v166.01L-9.77,235.34V69.34Z"/>
            <path class="h" d="M234.5,69.34l-122.13,46.69v166.01l122.13-46.69V69.34Z"/>
            <path class="j" d="M221.06,205.6c-26.22,26.97-68.28,42.4-95.26,36.82v-14.6c26.43,5.73,68.84-8.26,95.26-36.81v14.59ZM166.94,162.99l-8.66,3.36v39.14l-21.66,8.37v-39.13l-8.67,3.33,19.5-56.47,19.49,41.41ZM218.89,142.91l-8.67,3.36v39.13l-21.64,8.37v-39.14l-8.66,3.35,19.49-56.47,19.48,41.41Z"/>
          </g>
        </g>
      </g>
    </g>
  </g>
</svg>